# xmcd
# 
# Track frame offsets:
#     150
#     18194
#     40778
#     62321
#     90008
#     104011
#     120645
#     141806
#     163710
#     170873
#     177864
#     191674
#     209568
#     225865
#     248681
#     262148
#     274840
#     293606
#     307981
#     326106
# 
# Disc length: 4643
# 
# Revision: 12
# Processed by: cddbd v1.5.2PL0 Copyright (c) Steve Scherf et al.
# Submitted via: fre:ac v1.0.31
# 
DISCID=14122114
DTITLE=Styx - The Complete Wooden Nickel Recordings Disc 2
DYEAR=1973
DGENRE=Rock/Pop
TTITLE0=Witch Wolf
TTITLE1=The Grove Of Eglantine
TTITLE2=Young Man
TTITLE3=As Bad As This
TTITLE4=Winner Takes All
TTITLE5=22 Years
TTITLE6=Jonas Psalter
TTITLE7=The Serpent Is Rising
TTITLE8=Krakatoa
TTITLE9=Hallelujah Chorus (From Handel's Messiah)
TTITLE10=Rock and Roll Feeling
TTITLE11=Havin' A Ball
TTITLE12=Golden Leak
TTITLE13=A Song For Suzanne
TTITLE14=A Man Like Me
TTITLE15=Lies
TTITLE16=Evil Eyes
TTITLE17=Southern Woman
TTITLE18=Christopher, Mr. Christopher
TTITLE19=Man Of Miracles
EXTD=
EXTT0=
EXTT1=
EXTT2=
EXTT3=
EXTT4=
EXTT5=
EXTT6=
EXTT7=
EXTT8=
EXTT9=
EXTT10=
EXTT11=
EXTT12=
EXTT13=
EXTT14=
EXTT15=
EXTT16=
EXTT17=
EXTT18=
EXTT19=
PLAYORDER=
